<mxfile host="app.diagrams.net" modified="2024-09-19T06:44:58.279Z" agent="Mozilla/5.0 (Windows NT 10.0; Win64; x64) AppleWebKit/537.36 (KHTML, like Gecko) Chrome/128.0.0.0 Safari/537.36" etag="FN0kFBNYCEUd59dQeoOD" version="24.6.4" type="device">
  <diagram name="Page-1" id="ARX-vvY_IHmNKR0kHpmq">
    <mxGraphModel dx="1434" dy="784" grid="1" gridSize="10" guides="1" tooltips="1" connect="1" arrows="1" fold="1" page="1" pageScale="1" pageWidth="850" pageHeight="1100" math="0" shadow="0">
      <root>
        <mxCell id="0" />
        <mxCell id="1" parent="0" />
        <mxCell id="O9yWYDqMrkL7J5tUoys5-7" style="edgeStyle=orthogonalEdgeStyle;rounded=0;orthogonalLoop=1;jettySize=auto;html=1;" edge="1" parent="1" source="O9yWYDqMrkL7J5tUoys5-3" target="O9yWYDqMrkL7J5tUoys5-5">
          <mxGeometry relative="1" as="geometry" />
        </mxCell>
        <mxCell id="O9yWYDqMrkL7J5tUoys5-3" value="&lt;b&gt;START&lt;/b&gt;" style="ellipse;whiteSpace=wrap;html=1;" vertex="1" parent="1">
          <mxGeometry x="365" y="30" width="120" height="80" as="geometry" />
        </mxCell>
        <mxCell id="O9yWYDqMrkL7J5tUoys5-8" style="edgeStyle=orthogonalEdgeStyle;rounded=0;orthogonalLoop=1;jettySize=auto;html=1;entryX=0.5;entryY=0;entryDx=0;entryDy=0;" edge="1" parent="1" source="O9yWYDqMrkL7J5tUoys5-5" target="O9yWYDqMrkL7J5tUoys5-6">
          <mxGeometry relative="1" as="geometry" />
        </mxCell>
        <mxCell id="O9yWYDqMrkL7J5tUoys5-5" value="&lt;b&gt;Admin Login&lt;/b&gt;" style="shape=parallelogram;perimeter=parallelogramPerimeter;whiteSpace=wrap;html=1;fixedSize=1;" vertex="1" parent="1">
          <mxGeometry x="365" y="140" width="120" height="60" as="geometry" />
        </mxCell>
        <mxCell id="O9yWYDqMrkL7J5tUoys5-10" style="edgeStyle=orthogonalEdgeStyle;rounded=0;orthogonalLoop=1;jettySize=auto;html=1;entryX=0;entryY=0.5;entryDx=0;entryDy=0;" edge="1" parent="1" source="O9yWYDqMrkL7J5tUoys5-6" target="O9yWYDqMrkL7J5tUoys5-9">
          <mxGeometry relative="1" as="geometry" />
        </mxCell>
        <mxCell id="O9yWYDqMrkL7J5tUoys5-13" style="edgeStyle=orthogonalEdgeStyle;rounded=0;orthogonalLoop=1;jettySize=auto;html=1;" edge="1" parent="1" source="O9yWYDqMrkL7J5tUoys5-6" target="O9yWYDqMrkL7J5tUoys5-12">
          <mxGeometry relative="1" as="geometry" />
        </mxCell>
        <mxCell id="O9yWYDqMrkL7J5tUoys5-6" value="&lt;b&gt;Validasi Login&lt;/b&gt;" style="rhombus;whiteSpace=wrap;html=1;" vertex="1" parent="1">
          <mxGeometry x="365" y="230" width="120" height="110" as="geometry" />
        </mxCell>
        <mxCell id="O9yWYDqMrkL7J5tUoys5-11" style="edgeStyle=orthogonalEdgeStyle;rounded=0;orthogonalLoop=1;jettySize=auto;html=1;entryX=1;entryY=0.5;entryDx=0;entryDy=0;" edge="1" parent="1" source="O9yWYDqMrkL7J5tUoys5-9" target="O9yWYDqMrkL7J5tUoys5-5">
          <mxGeometry relative="1" as="geometry">
            <Array as="points">
              <mxPoint x="580" y="170" />
            </Array>
          </mxGeometry>
        </mxCell>
        <mxCell id="O9yWYDqMrkL7J5tUoys5-9" value="&lt;b&gt;Tampilan Login Salah&lt;/b&gt;" style="shape=parallelogram;perimeter=parallelogramPerimeter;whiteSpace=wrap;html=1;fixedSize=1;" vertex="1" parent="1">
          <mxGeometry x="530" y="255" width="120" height="60" as="geometry" />
        </mxCell>
        <mxCell id="O9yWYDqMrkL7J5tUoys5-12" value="&lt;b&gt;Admin Login ke System&lt;/b&gt;" style="rounded=0;whiteSpace=wrap;html=1;" vertex="1" parent="1">
          <mxGeometry x="365" y="370" width="120" height="60" as="geometry" />
        </mxCell>
      </root>
    </mxGraphModel>
  </diagram>
</mxfile>
